<?xml version="1.0" encoding="UTF-8"?>
<svg id="a" data-name="Layer 1" xmlns="http://www.w3.org/2000/svg" viewBox="0 0 419.5 559.34">
  <defs>
    <style>
      .b {
        fill: #00e5cc;
      }

      .c {
        fill: #ff4c5e;
      }
    </style>
  </defs>
  <path class="b" d="M40.55,279.67H0v-27.97h31.88c-2.61-12.86-3.92-27.22-3.92-43.07,0-83.15,37.29-124.73,111.87-124.73h195.77v111.87h-139.83c-18.65,0-27.97,4.29-27.97,12.86,0,10.07,9.32,15.1,27.97,15.1h55.93c35.24,0,62.18,9.33,80.82,27.97h-24.89v27.97h43.63c8.2,18.46,12.31,41.39,12.31,68.8,0,15.85-1.31,30.2-3.92,43.07h-34.4v27.97h49.78v27.97h-111.59v27.69l-263.45.28v-27.97h83.9v-27.97H27.97v-27.97h27.97v-27.97h139.83c18.64,0,27.97-5.03,27.97-15.1,0-8.57-9.33-12.86-27.97-12.86h-55.93c-10.07,0-19.39-.74-27.97-2.24v-25.73h-52.3c-7.83-7.64-14.17-16.96-19.02-27.97ZM419.5,307.63v27.97h-27.97v-27.97h27.97Z"/>
  <rect class="b" x="218.51" width="27.97" height="83.9"/>
  <rect class="b" x="175.21" y="27.97" width="27.97" height="27.97"/>
  <rect class="b" x="175.21" width="27.97" height="27.97"/>
  <rect class="b" x="175.21" y="45.22" width="27.97" height="42.32"/>
  <rect class="b" x="218.51" y="475.43" width="27.97" height="27.97"/>
  <rect class="b" x="218.51" y="503.4" width="27.97" height="27.97"/>
  <rect class="b" x="218.51" y="537.43" width="27.97" height="21.91"/>
  <rect class="c" x="173.53" y="475.43" width="27.97" height="34.53"/>
  <rect class="b" x="173.53" y="520.32" width="27.97" height="39.02"/>
  <rect class="c" y="251.7" width="307.96" height="27.97"/>
  <polyline class="c" points="0 447.47 264.3 447.47 264.3 475.43 0 475.43"/>
  <rect class="c" x="391.53" y="307.63" width="27.97" height="27.97"/>
  <path class="c" d="M111.87,307.63v25.73c8.57,1.49,17.9,2.24,27.97,2.24h223.37c-.51-9.99-1.63-19.3-3.35-27.97H111.87Z"/>
  <polyline class="c" points="28.58 391.53 327.8 391.53 327.8 419.5 28.58 419.5"/>
</svg>
