<svg xmlns="http://www.w3.org/2000/svg" viewBox="0 0 24 24" width="512" height="512">
  <defs>
    <!-- Clean: top ~70% of the icon -->
    <clipPath id="clean"><rect x="-4" y="0" width="32" height="16"/></clipPath>
    <!-- 3 tight glitch bands -->
    <clipPath id="z1"><rect x="-4" y="16" width="32" height="2"/></clipPath>
    <clipPath id="z2"><rect x="-4" y="18" width="32" height="1.5"/></clipPath>
    <clipPath id="z3"><rect x="-4" y="19.5" width="32" height="4.5"/></clipPath>
  </defs>

  <!-- ===== Clean top — solid, no effect ===== -->
  <g clip-path="url(#clean)">
    <path d="M11.8 10.9c-2.27-.59-3-1.2-3-2.15 0-1.09 1.01-1.85 2.7-1.85 1.78 0 2.44.85 2.5 2.1h2.21c-.07-1.72-1.12-3.3-3.21-3.81V3h-3v2.16c-1.94.42-3.5 1.68-3.5 3.61 0 2.31 1.91 3.46 4.7 4.13 2.5.6 3 1.48 3 2.41 0 .69-.49 1.79-2.7 1.79-2.06 0-2.87-.92-2.98-2.1h-2.2c.12 2.19 1.76 3.42 3.68 3.83V21h3v-2.15c1.95-.37 3.5-1.5 3.5-3.55 0-2.84-2.43-3.81-4.7-4.4z" fill="#00E5CC" stroke="#00E5CC" stroke-width="0.5" stroke-linejoin="round" paint-order="stroke fill"/>
  </g>

  <!-- ===== Zone 1: subtle shift ===== -->
  <g clip-path="url(#z1)">
    <!-- Main teal — tiny right shift -->
    <g transform="translate(0.3,0)">
      <path d="M11.8 10.9c-2.27-.59-3-1.2-3-2.15 0-1.09 1.01-1.85 2.7-1.85 1.78 0 2.44.85 2.5 2.1h2.21c-.07-1.72-1.12-3.3-3.21-3.81V3h-3v2.16c-1.94.42-3.5 1.68-3.5 3.61 0 2.31 1.91 3.46 4.7 4.13 2.5.6 3 1.48 3 2.41 0 .69-.49 1.79-2.7 1.79-2.06 0-2.87-.92-2.98-2.1h-2.2c.12 2.19 1.76 3.42 3.68 3.83V21h3v-2.15c1.95-.37 3.5-1.5 3.5-3.55 0-2.84-2.43-3.81-4.7-4.4z" fill="#00E5CC" stroke="#00E5CC" stroke-width="0.5" stroke-linejoin="round" paint-order="stroke fill" opacity="0.9"/>
    </g>
    <!-- Red offset -->
    <g transform="translate(0.8,0)">
      <path d="M11.8 10.9c-2.27-.59-3-1.2-3-2.15 0-1.09 1.01-1.85 2.7-1.85 1.78 0 2.44.85 2.5 2.1h2.21c-.07-1.72-1.12-3.3-3.21-3.81V3h-3v2.16c-1.94.42-3.5 1.68-3.5 3.61 0 2.31 1.91 3.46 4.7 4.13 2.5.6 3 1.48 3 2.41 0 .69-.49 1.79-2.7 1.79-2.06 0-2.87-.92-2.98-2.1h-2.2c.12 2.19 1.76 3.42 3.68 3.83V21h3v-2.15c1.95-.37 3.5-1.5 3.5-3.55 0-2.84-2.43-3.81-4.7-4.4z" fill="#FF4C5E" stroke="#FF4C5E" stroke-width="0.5" stroke-linejoin="round" paint-order="stroke fill" opacity="0.3"/>
    </g>
    <!-- Blue offset -->
    <g transform="translate(-0.5,0)">
      <path d="M11.8 10.9c-2.27-.59-3-1.2-3-2.15 0-1.09 1.01-1.85 2.7-1.85 1.78 0 2.44.85 2.5 2.1h2.21c-.07-1.72-1.12-3.3-3.21-3.81V3h-3v2.16c-1.94.42-3.5 1.68-3.5 3.61 0 2.31 1.91 3.46 4.7 4.13 2.5.6 3 1.48 3 2.41 0 .69-.49 1.79-2.7 1.79-2.06 0-2.87-.92-2.98-2.1h-2.2c.12 2.19 1.76 3.42 3.68 3.83V21h3v-2.15c1.95-.37 3.5-1.5 3.5-3.55 0-2.84-2.43-3.81-4.7-4.4z" fill="#42A5F5" stroke="#42A5F5" stroke-width="0.5" stroke-linejoin="round" paint-order="stroke fill" opacity="0.15"/>
    </g>
  </g>

  <!-- ===== Zone 2: moderate shift ===== -->
  <g clip-path="url(#z2)">
    <g transform="translate(-0.4,0)">
      <path d="M11.8 10.9c-2.27-.59-3-1.2-3-2.15 0-1.09 1.01-1.85 2.7-1.85 1.78 0 2.44.85 2.5 2.1h2.21c-.07-1.72-1.12-3.3-3.21-3.81V3h-3v2.16c-1.94.42-3.5 1.68-3.5 3.61 0 2.31 1.91 3.46 4.7 4.13 2.5.6 3 1.48 3 2.41 0 .69-.49 1.79-2.7 1.79-2.06 0-2.87-.92-2.98-2.1h-2.2c.12 2.19 1.76 3.42 3.68 3.83V21h3v-2.15c1.95-.37 3.5-1.5 3.5-3.55 0-2.84-2.43-3.81-4.7-4.4z" fill="#00E5CC" stroke="#00E5CC" stroke-width="0.5" stroke-linejoin="round" paint-order="stroke fill" opacity="0.6"/>
    </g>
    <g transform="translate(0.6,0)">
      <path d="M11.8 10.9c-2.27-.59-3-1.2-3-2.15 0-1.09 1.01-1.85 2.7-1.85 1.78 0 2.44.85 2.5 2.1h2.21c-.07-1.72-1.12-3.3-3.21-3.81V3h-3v2.16c-1.94.42-3.5 1.68-3.5 3.61 0 2.31 1.91 3.46 4.7 4.13 2.5.6 3 1.48 3 2.41 0 .69-.49 1.79-2.7 1.79-2.06 0-2.87-.92-2.98-2.1h-2.2c.12 2.19 1.76 3.42 3.68 3.83V21h3v-2.15c1.95-.37 3.5-1.5 3.5-3.55 0-2.84-2.43-3.81-4.7-4.4z" fill="#FF4C5E" stroke="#FF4C5E" stroke-width="0.5" stroke-linejoin="round" paint-order="stroke fill" opacity="0.35"/>
    </g>
    <g transform="translate(-0.6,0)">
      <path d="M11.8 10.9c-2.27-.59-3-1.2-3-2.15 0-1.09 1.01-1.85 2.7-1.85 1.78 0 2.44.85 2.5 2.1h2.21c-.07-1.72-1.12-3.3-3.21-3.81V3h-3v2.16c-1.94.42-3.5 1.68-3.5 3.61 0 2.31 1.91 3.46 4.7 4.13 2.5.6 3 1.48 3 2.41 0 .69-.49 1.79-2.7 1.79-2.06 0-2.87-.92-2.98-2.1h-2.2c.12 2.19 1.76 3.42 3.68 3.83V21h3v-2.15c1.95-.37 3.5-1.5 3.5-3.55 0-2.84-2.43-3.81-4.7-4.4z" fill="#42A5F5" stroke="#42A5F5" stroke-width="0.5" stroke-linejoin="round" paint-order="stroke fill" opacity="0.2"/>
    </g>
  </g>

  <!-- ===== Zone 3: fading out ===== -->
  <g clip-path="url(#z3)">
    <g transform="translate(0.5,0)">
      <path d="M11.8 10.9c-2.27-.59-3-1.2-3-2.15 0-1.09 1.01-1.85 2.7-1.85 1.78 0 2.44.85 2.5 2.1h2.21c-.07-1.72-1.12-3.3-3.21-3.81V3h-3v2.16c-1.94.42-3.5 1.68-3.5 3.61 0 2.31 1.91 3.46 4.7 4.13 2.5.6 3 1.48 3 2.41 0 .69-.49 1.79-2.7 1.79-2.06 0-2.87-.92-2.98-2.1h-2.2c.12 2.19 1.76 3.42 3.68 3.83V21h3v-2.15c1.95-.37 3.5-1.5 3.5-3.55 0-2.84-2.43-3.81-4.7-4.4z" fill="#00E5CC" stroke="#00E5CC" stroke-width="0.5" stroke-linejoin="round" paint-order="stroke fill" opacity="0.25"/>
    </g>
    <g transform="translate(1.0,0)">
      <path d="M11.8 10.9c-2.27-.59-3-1.2-3-2.15 0-1.09 1.01-1.85 2.7-1.85 1.78 0 2.44.85 2.5 2.1h2.21c-.07-1.72-1.12-3.3-3.21-3.81V3h-3v2.16c-1.94.42-3.5 1.68-3.5 3.61 0 2.31 1.91 3.46 4.7 4.13 2.5.6 3 1.48 3 2.41 0 .69-.49 1.79-2.7 1.79-2.06 0-2.87-.92-2.98-2.1h-2.2c.12 2.19 1.76 3.42 3.68 3.83V21h3v-2.15c1.95-.37 3.5-1.5 3.5-3.55 0-2.84-2.43-3.81-4.7-4.4z" fill="#FF4C5E" stroke="#FF4C5E" stroke-width="0.5" stroke-linejoin="round" paint-order="stroke fill" opacity="0.15"/>
    </g>
    <g transform="translate(-0.7,0)">
      <path d="M11.8 10.9c-2.27-.59-3-1.2-3-2.15 0-1.09 1.01-1.85 2.7-1.85 1.78 0 2.44.85 2.5 2.1h2.21c-.07-1.72-1.12-3.3-3.21-3.81V3h-3v2.16c-1.94.42-3.5 1.68-3.5 3.61 0 2.31 1.91 3.46 4.7 4.13 2.5.6 3 1.48 3 2.41 0 .69-.49 1.79-2.7 1.79-2.06 0-2.87-.92-2.98-2.1h-2.2c.12 2.19 1.76 3.42 3.68 3.83V21h3v-2.15c1.95-.37 3.5-1.5 3.5-3.55 0-2.84-2.43-3.81-4.7-4.4z" fill="#42A5F5" stroke="#42A5F5" stroke-width="0.5" stroke-linejoin="round" paint-order="stroke fill" opacity="0.08"/>
    </g>
  </g>
</svg>